<svg width="160" height="211" viewBox="0 0 160 211" fill="none" xmlns="http://www.w3.org/2000/svg">
<mask id="mask0_65_32" style="mask-type:luminance" maskUnits="userSpaceOnUse" x="0" y="0" width="160" height="211">
<path d="M160 0H0V211H160V0Z" fill="white"/>
</mask>
<g mask="url(#mask0_65_32)">
<path d="M0.761841 142.799C1.04091 126.781 5.43528 111.591 10.2409 96.4791C17.0331 75.279 27.1641 55.1845 40.2874 36.8835C47.998 26.2655 57.0824 16.6163 67.3256 8.16427C68.73 6.95706 69.9704 5.58693 71.0177 4.08601C73.1367 1.09744 75.9394 -0.373372 79.4994 0.623117C82.2661 1.2898 84.8685 2.4683 87.1583 4.09142C92.4943 8.16983 97.5551 12.5653 102.31 17.2515C115.756 30.8761 127.978 45.5016 137.87 61.6619C151.284 83.5811 159.767 107.089 159.597 132.801C159.505 146.253 157.365 159.415 150.131 171.329C139.915 188.161 124.276 198.705 105.493 205.128C87.0344 211.443 68.0688 211.923 49.079 207.398C27.1831 202.18 6.56731 185.69 2.28823 157.713C1.53754 152.775 1.25952 147.772 0.761841 142.799ZM75.3563 13.4819C65.5237 21.7641 54.3582 34.6528 47.6243 44.7534C33.4131 66.1806 22.9951 89.689 16.787 114.338C13.0894 128.722 11.1126 143.156 13.7545 158C17.8931 181.292 35.8474 195.032 55.3944 198.32C64.3516 199.827 73.3422 200.573 82.464 199.54C100.431 197.5 116.177 190.939 129.188 178.882C136.518 172.273 141.651 163.759 143.948 154.396C146.76 142.989 147.185 131.166 145.198 119.602C141.756 99.3409 133.655 80.0545 121.478 63.1237C112.619 50.6991 102.689 38.9998 91.7916 28.1473C86.6391 23.0442 80.947 18.4404 75.3563 13.4819Z" fill="white"/>
<path d="M137.389 133.088C137.681 137.979 135.845 144.824 132.093 151.145C130.711 153.345 129.002 155.344 127.02 157.08C125.34 158.616 123.054 159.271 120.921 157.751C119.049 156.422 118.818 154.432 119.579 152.432C120.28 150.426 121.148 148.475 122.174 146.601C130.292 132.724 129.244 118.746 122.859 104.672C122.292 103.423 121.407 102.166 121.356 100.888C121.309 99.721 121.862 97.9921 122.759 97.4859C123.382 97.2793 124.048 97.2181 124.7 97.3086C125.353 97.3982 125.974 97.6376 126.509 98.0046C127.902 99.244 129.052 100.709 129.906 102.332C135.078 111.123 137.232 120.652 137.389 133.088Z" fill="white"/>
<path d="M116.094 170.928C116.108 171.549 115.991 172.165 115.748 172.741C115.505 173.316 115.141 173.839 114.681 174.276C114.221 174.715 113.671 175.058 113.066 175.288C112.461 175.518 111.815 175.628 111.164 175.612C110.514 175.597 109.873 175.456 109.281 175.198C108.689 174.94 108.159 174.568 107.722 174.109C107.285 173.65 106.951 173.111 106.739 172.523C106.527 171.937 106.442 171.315 106.489 170.697C106.616 168.051 108.722 165.872 111.105 165.91C112.444 166.002 113.698 166.568 114.621 167.497C115.544 168.425 116.07 169.65 116.094 170.928Z" fill="white"/>
</g>
</svg>
