<svg width="17" height="23" viewBox="0 0 17 23" fill="none" xmlns="http://www.w3.org/2000/svg">
<path d="M1.13699 10.5841L6.7265 1.02493C6.90894 0.712894 7.17312 0.453607 7.49207 0.273542C7.81103 0.0934777 8.17333 -0.000913631 8.54198 6.66564e-06C8.91063 0.000926962 9.27243 0.0971258 9.59044 0.278781C9.90844 0.460435 10.1713 0.721038 10.352 1.03398L16.0438 10.8828H16.0345C16.671 12.067 17.0024 13.3843 17 14.7211C17 19.2933 13.1945 23 8.50042 23C3.80631 23 0 19.2933 0 14.7211C0 13.2878 0.374211 11.9401 1.0314 10.7651H1.02971L1.08293 10.6746L1.13699 10.5825V10.5841Z" fill="url(#paint0_linear_11_228)"/>
<defs>
<linearGradient id="paint0_linear_11_228" x1="2.85177" y1="7.13661" x2="8.46955" y2="9.07723" gradientUnits="userSpaceOnUse">
<stop offset="0.032" stop-color="#7B0208"/>
<stop offset="1" stop-color="#E5254F" stop-opacity="0"/>
</linearGradient>
</defs>
</svg>
